<?xml version="1.0" encoding="UTF-8" standalone="no"?>
<!DOCTYPE svg PUBLIC "-//W3C//DTD SVG 1.1//EN"
 "http://www.w3.org/Graphics/SVG/1.1/DTD/svg11.dtd">
<!-- Generated by graphviz version 2.38.0 (20140413.2041)
 -->
<!-- Title: states Pages: 1 -->
<svg width="558pt" height="702pt"
 viewBox="0.00 0.00 558.34 701.74" xmlns="http://www.w3.org/2000/svg" xmlns:xlink="http://www.w3.org/1999/xlink">
<g id="graph0" class="graph" transform="scale(1 1) rotate(0) translate(4 697.74)">
<title>states</title>
<polygon fill="white" stroke="none" points="-4,4 -4,-697.74 554.344,-697.74 554.344,4 -4,4"/>
<!-- start -->
<g id="node1" class="node"><title>start</title>
<polygon fill="none" stroke="black" points="254.344,-693.74 200.344,-693.74 200.344,-657.74 254.344,-657.74 254.344,-693.74"/>
<text text-anchor="middle" x="227.344" y="-672.04" font-family="Times,serif" font-size="14.00">start</text>
</g>
<!-- hash -->
<g id="node7" class="node"><title>hash</title>
<ellipse fill="none" stroke="black" cx="227.344" cy="-602.74" rx="32.4942" ry="18"/>
<text text-anchor="middle" x="227.344" y="-599.04" font-family="Times,serif" font-size="14.00">hash</text>
</g>
<!-- start&#45;&gt;hash -->
<g id="edge1" class="edge"><title>start&#45;&gt;hash</title>
<path fill="none" stroke="black" d="M227.344,-657.553C227.344,-649.53 227.344,-639.788 227.344,-630.809"/>
<polygon fill="black" stroke="black" points="230.844,-630.769 227.344,-620.769 223.844,-630.769 230.844,-630.769"/>
</g>
<!-- fail -->
<g id="node2" class="node"><title>fail</title>
<polygon fill="none" stroke="black" points="334.844,-109 259.844,-109 259.844,-73 334.844,-73 334.844,-109"/>
<text text-anchor="middle" x="297.344" y="-87.3" font-family="Times,serif" font-size="14.00">exit !=0</text>
</g>
<!-- success -->
<g id="node3" class="node"><title>success</title>
<polygon fill="none" stroke="black" points="355.844,-36 298.844,-36 298.844,-0 355.844,-0 355.844,-36"/>
<text text-anchor="middle" x="327.344" y="-14.3" font-family="Times,serif" font-size="14.00">exit 0</text>
</g>
<!-- manual -->
<g id="node4" class="node"><title>manual</title>
<ellipse fill="none" stroke="black" cx="227.344" cy="-273.87" rx="75.8212" ry="26.7407"/>
<text text-anchor="middle" x="227.344" y="-277.67" font-family="Times,serif" font-size="14.00">[interactive]</text>
<text text-anchor="middle" x="227.344" y="-262.67" font-family="Times,serif" font-size="14.00">show hashes</text>
</g>
<!-- warn -->
<g id="node10" class="node"><title>warn</title>
<ellipse fill="none" stroke="black" cx="297.344" cy="-178" rx="34.394" ry="18"/>
<text text-anchor="middle" x="297.344" y="-174.3" font-family="Times,serif" font-size="14.00">warn</text>
</g>
<!-- manual&#45;&gt;warn -->
<g id="edge7" class="edge"><title>manual&#45;&gt;warn</title>
<path fill="none" stroke="black" d="M246.103,-247.715C256.335,-233.993 268.947,-217.081 279.097,-203.469"/>
<polygon fill="black" stroke="black" points="282.191,-205.176 285.363,-195.067 276.579,-200.991 282.191,-205.176"/>
</g>
<!-- auto -->
<g id="node5" class="node"><title>auto</title>
<ellipse fill="none" stroke="black" cx="64.3443" cy="-369.74" rx="64.189" ry="18"/>
<text text-anchor="middle" x="64.3443" y="-366.04" font-family="Times,serif" font-size="14.00">[automatic]</text>
</g>
<!-- auto&#45;&gt;manual -->
<g id="edge12" class="edge"><title>auto&#45;&gt;manual</title>
<path fill="none" stroke="black" d="M87.5382,-352.775C102.62,-342.622 122.85,-329.423 141.344,-318.74 151.889,-312.649 163.376,-306.481 174.42,-300.772"/>
<polygon fill="black" stroke="black" points="176.254,-303.765 183.563,-296.095 173.067,-297.533 176.254,-303.765"/>
<text text-anchor="middle" x="177.344" y="-322.54" font-family="Times,serif" font-size="14.00">No Match</text>
</g>
<!-- commit -->
<g id="node6" class="node"><title>commit</title>
<ellipse fill="none" stroke="black" cx="97.3443" cy="-91" rx="67.6881" ry="18"/>
<text text-anchor="middle" x="97.3443" y="-87.3" font-family="Times,serif" font-size="14.00">submit hash</text>
</g>
<!-- auto&#45;&gt;commit -->
<g id="edge11" class="edge"><title>auto&#45;&gt;commit</title>
<path fill="none" stroke="black" d="M66.4086,-351.429C71.9761,-304.739 87.335,-175.939 94.0874,-119.313"/>
<polygon fill="black" stroke="black" points="97.572,-119.649 95.2808,-109.305 90.6212,-118.82 97.572,-119.649"/>
<text text-anchor="middle" x="106.344" y="-217.8" font-family="Times,serif" font-size="14.00">Match</text>
</g>
<!-- commit&#45;&gt;success -->
<g id="edge13" class="edge"><title>commit&#45;&gt;success</title>
<path fill="none" stroke="black" d="M139.798,-76.8948C182.487,-63.7169 247.717,-43.5805 288.916,-30.8626"/>
<polygon fill="black" stroke="black" points="290.068,-34.17 298.591,-27.8761 288.003,-27.4815 290.068,-34.17"/>
</g>
<!-- query blockchain -->
<g id="node8" class="node"><title>query blockchain</title>
<ellipse fill="none" stroke="black" cx="227.344" cy="-529.74" rx="90.9839" ry="18"/>
<text text-anchor="middle" x="227.344" y="-526.04" font-family="Times,serif" font-size="14.00">query blockchain</text>
</g>
<!-- hash&#45;&gt;query blockchain -->
<g id="edge2" class="edge"><title>hash&#45;&gt;query blockchain</title>
<path fill="none" stroke="black" d="M227.344,-584.553C227.344,-576.53 227.344,-566.788 227.344,-557.809"/>
<polygon fill="black" stroke="black" points="230.844,-557.769 227.344,-547.769 223.844,-557.769 230.844,-557.769"/>
</g>
<!-- compare -->
<g id="node9" class="node"><title>compare</title>
<ellipse fill="none" stroke="black" cx="227.344" cy="-456.74" rx="51.1914" ry="18"/>
<text text-anchor="middle" x="227.344" y="-453.04" font-family="Times,serif" font-size="14.00">compare</text>
</g>
<!-- query blockchain&#45;&gt;compare -->
<g id="edge3" class="edge"><title>query blockchain&#45;&gt;compare</title>
<path fill="none" stroke="black" d="M227.344,-511.553C227.344,-503.53 227.344,-493.788 227.344,-484.809"/>
<polygon fill="black" stroke="black" points="230.844,-484.769 227.344,-474.769 223.844,-484.769 230.844,-484.769"/>
</g>
<!-- compare&#45;&gt;manual -->
<g id="edge5" class="edge"><title>compare&#45;&gt;manual</title>
<path fill="none" stroke="black" d="M227.344,-438.724C227.344,-409.706 227.344,-350.033 227.344,-311.271"/>
<polygon fill="black" stroke="black" points="230.844,-310.935 227.344,-300.936 223.844,-310.936 230.844,-310.935"/>
<text text-anchor="middle" x="308.844" y="-366.04" font-family="Times,serif" font-size="14.00">Count below threshold</text>
</g>
<!-- compare&#45;&gt;auto -->
<g id="edge6" class="edge"><title>compare&#45;&gt;auto</title>
<path fill="none" stroke="black" d="M177.175,-452.761C130.604,-448.823 66.1533,-439.981 50.3443,-420.74 44.7728,-413.959 45.464,-405.104 48.4602,-396.733"/>
<polygon fill="black" stroke="black" points="51.6491,-398.176 52.6114,-387.625 45.2794,-395.273 51.6491,-398.176"/>
<text text-anchor="middle" x="131.844" y="-409.54" font-family="Times,serif" font-size="14.00">Count above threshold</text>
</g>
<!-- compare&#45;&gt;warn -->
<g id="edge4" class="edge"><title>compare&#45;&gt;warn</title>
<path fill="none" stroke="black" d="M275.658,-450.531C314.956,-443.464 368.052,-426.834 394.344,-387.74 436.77,-324.657 362.574,-240.058 321.656,-200.758"/>
<polygon fill="black" stroke="black" points="323.881,-198.045 314.2,-193.741 319.084,-203.143 323.881,-198.045"/>
<text text-anchor="middle" x="466.844" y="-322.54" font-family="Times,serif" font-size="14.00">No hash in chain</text>
</g>
<!-- warn&#45;&gt;fail -->
<g id="edge10" class="edge"><title>warn&#45;&gt;fail</title>
<path fill="none" stroke="black" d="M297.344,-159.799C297.344,-148.163 297.344,-132.548 297.344,-119.237"/>
<polygon fill="black" stroke="black" points="300.844,-119.175 297.344,-109.175 293.844,-119.175 300.844,-119.175"/>
<text text-anchor="middle" x="347.344" y="-130.8" font-family="Times,serif" font-size="14.00">Manual reject</text>
</g>
<!-- warn&#45;&gt;success -->
<g id="edge9" class="edge"><title>warn&#45;&gt;success</title>
<path fill="none" stroke="black" d="M331.483,-174.991C354.484,-171.649 383.278,-163.166 398.344,-142 421.608,-109.317 386.621,-68.4942 358.03,-43.0797"/>
<polygon fill="black" stroke="black" points="360.055,-40.2042 350.19,-36.3397 355.491,-45.5126 360.055,-40.2042"/>
<text text-anchor="middle" x="477.844" y="-87.3" font-family="Times,serif" font-size="14.00">Manual accept once</text>
</g>
<!-- warn&#45;&gt;commit -->
<g id="edge8" class="edge"><title>warn&#45;&gt;commit</title>
<path fill="none" stroke="black" d="M263.246,-174.339C217.134,-170.095 138.143,-160.336 116.344,-142 109.398,-136.157 104.986,-127.486 102.186,-118.999"/>
<polygon fill="black" stroke="black" points="105.556,-118.052 99.584,-109.301 98.7948,-119.866 105.556,-118.052"/>
<text text-anchor="middle" x="204.844" y="-130.8" font-family="Times,serif" font-size="14.00">Manual accept and trust</text>
</g>
</g>
</svg>
