<?xml version="1.0" encoding="UTF-8" standalone="no"?>
<!DOCTYPE svg PUBLIC "-//W3C//DTD SVG 1.1//EN"
 "http://www.w3.org/Graphics/SVG/1.1/DTD/svg11.dtd">
<!-- Generated by graphviz version 2.38.0 (20140413.2041)
 -->
<!-- Title: states Pages: 1 -->
<svg width="485pt" height="629pt"
 viewBox="0.00 0.00 484.68 628.74" xmlns="http://www.w3.org/2000/svg" xmlns:xlink="http://www.w3.org/1999/xlink">
<g id="graph0" class="graph" transform="scale(1 1) rotate(0) translate(4 624.74)">
<title>states</title>
<polygon fill="white" stroke="none" points="-4,4 -4,-624.74 480.678,-624.74 480.678,4 -4,4"/>
<!-- start -->
<g id="node1" class="node"><title>start</title>
<polygon fill="none" stroke="black" points="210.678,-620.74 156.678,-620.74 156.678,-584.74 210.678,-584.74 210.678,-620.74"/>
<text text-anchor="middle" x="183.678" y="-599.04" font-family="Times,serif" font-size="14.00">start</text>
</g>
<!-- hash -->
<g id="node6" class="node"><title>hash</title>
<ellipse fill="none" stroke="black" cx="183.678" cy="-529.74" rx="32.4942" ry="18"/>
<text text-anchor="middle" x="183.678" y="-526.04" font-family="Times,serif" font-size="14.00">hash</text>
</g>
<!-- start&#45;&gt;hash -->
<g id="edge1" class="edge"><title>start&#45;&gt;hash</title>
<path fill="none" stroke="black" d="M183.678,-584.553C183.678,-576.53 183.678,-566.788 183.678,-557.809"/>
<polygon fill="black" stroke="black" points="187.178,-557.769 183.678,-547.769 180.178,-557.769 187.178,-557.769"/>
</g>
<!-- fail -->
<g id="node2" class="node"><title>fail</title>
<polygon fill="none" stroke="black" points="208.178,-36 133.178,-36 133.178,-0 208.178,-0 208.178,-36"/>
<text text-anchor="middle" x="170.678" y="-14.3" font-family="Times,serif" font-size="14.00">exit !=0</text>
</g>
<!-- success -->
<g id="node3" class="node"><title>success</title>
<polygon fill="none" stroke="black" points="382.178,-36 325.178,-36 325.178,-0 382.178,-0 382.178,-36"/>
<text text-anchor="middle" x="353.678" y="-14.3" font-family="Times,serif" font-size="14.00">exit 0</text>
</g>
<!-- manual -->
<g id="node4" class="node"><title>manual</title>
<ellipse fill="none" stroke="black" cx="79.6779" cy="-200.87" rx="75.8212" ry="26.7407"/>
<text text-anchor="middle" x="79.6779" y="-204.67" font-family="Times,serif" font-size="14.00">[interactive]</text>
<text text-anchor="middle" x="79.6779" y="-189.67" font-family="Times,serif" font-size="14.00">show hashes</text>
</g>
<!-- warn -->
<g id="node9" class="node"><title>warn</title>
<ellipse fill="none" stroke="black" cx="176.678" cy="-105" rx="34.394" ry="18"/>
<text text-anchor="middle" x="176.678" y="-101.3" font-family="Times,serif" font-size="14.00">warn</text>
</g>
<!-- manual&#45;&gt;warn -->
<g id="edge7" class="edge"><title>manual&#45;&gt;warn</title>
<path fill="none" stroke="black" d="M104.91,-175.452C120.016,-160.834 139.067,-142.397 153.744,-128.193"/>
<polygon fill="black" stroke="black" points="156.225,-130.664 160.977,-121.194 151.357,-125.633 156.225,-130.664"/>
</g>
<!-- auto -->
<g id="node5" class="node"><title>auto</title>
<ellipse fill="none" stroke="black" cx="327.678" cy="-296.74" rx="64.189" ry="18"/>
<text text-anchor="middle" x="327.678" y="-293.04" font-family="Times,serif" font-size="14.00">[automatic]</text>
</g>
<!-- auto&#45;&gt;success -->
<g id="edge10" class="edge"><title>auto&#45;&gt;success</title>
<path fill="none" stroke="black" d="M368.157,-282.62C378.144,-277.406 387.686,-270.301 393.678,-260.74 442.502,-182.838 441.934,-136.161 400.678,-54 398.167,-48.9995 394.566,-44.5321 390.458,-40.5996"/>
<polygon fill="black" stroke="black" points="392.57,-37.804 382.644,-34.0991 388.093,-43.1853 392.57,-37.804"/>
<text text-anchor="middle" x="453.678" y="-144.8" font-family="Times,serif" font-size="14.00">Match</text>
</g>
<!-- auto&#45;&gt;manual -->
<g id="edge11" class="edge"><title>auto&#45;&gt;manual</title>
<path fill="none" stroke="black" d="M324.351,-278.387C321.334,-267.398 315.755,-253.79 305.678,-245.74 283.702,-228.186 217.583,-216.674 162.499,-209.866"/>
<polygon fill="black" stroke="black" points="162.701,-206.365 152.355,-208.649 161.867,-213.315 162.701,-206.365"/>
<text text-anchor="middle" x="353.678" y="-249.54" font-family="Times,serif" font-size="14.00">No Match</text>
</g>
<!-- query blockchain -->
<g id="node7" class="node"><title>query blockchain</title>
<ellipse fill="none" stroke="black" cx="183.678" cy="-456.74" rx="90.9839" ry="18"/>
<text text-anchor="middle" x="183.678" y="-453.04" font-family="Times,serif" font-size="14.00">query blockchain</text>
</g>
<!-- hash&#45;&gt;query blockchain -->
<g id="edge2" class="edge"><title>hash&#45;&gt;query blockchain</title>
<path fill="none" stroke="black" d="M183.678,-511.553C183.678,-503.53 183.678,-493.788 183.678,-484.809"/>
<polygon fill="black" stroke="black" points="187.178,-484.769 183.678,-474.769 180.178,-484.769 187.178,-484.769"/>
</g>
<!-- compare -->
<g id="node8" class="node"><title>compare</title>
<ellipse fill="none" stroke="black" cx="183.678" cy="-383.74" rx="51.1914" ry="18"/>
<text text-anchor="middle" x="183.678" y="-380.04" font-family="Times,serif" font-size="14.00">compare</text>
</g>
<!-- query blockchain&#45;&gt;compare -->
<g id="edge3" class="edge"><title>query blockchain&#45;&gt;compare</title>
<path fill="none" stroke="black" d="M183.678,-438.553C183.678,-430.53 183.678,-420.788 183.678,-411.809"/>
<polygon fill="black" stroke="black" points="187.178,-411.769 183.678,-401.769 180.178,-411.769 187.178,-411.769"/>
</g>
<!-- compare&#45;&gt;manual -->
<g id="edge5" class="edge"><title>compare&#45;&gt;manual</title>
<path fill="none" stroke="black" d="M134.217,-378.672C92.4757,-372.327 35.1065,-356.116 6.67791,-314.74 -12.3866,-286.993 13.2162,-254.676 39.1989,-231.75"/>
<polygon fill="black" stroke="black" points="41.5006,-234.388 46.8618,-225.249 36.972,-229.05 41.5006,-234.388"/>
<text text-anchor="middle" x="88.1779" y="-293.04" font-family="Times,serif" font-size="14.00">Count below threshold</text>
</g>
<!-- compare&#45;&gt;auto -->
<g id="edge6" class="edge"><title>compare&#45;&gt;auto</title>
<path fill="none" stroke="black" d="M208.761,-367.934C231.971,-354.234 266.702,-333.733 292.646,-318.419"/>
<polygon fill="black" stroke="black" points="294.591,-321.335 301.423,-313.238 291.032,-315.307 294.591,-321.335"/>
<text text-anchor="middle" x="350.178" y="-336.54" font-family="Times,serif" font-size="14.00">Count above threshold</text>
</g>
<!-- compare&#45;&gt;warn -->
<g id="edge4" class="edge"><title>compare&#45;&gt;warn</title>
<path fill="none" stroke="black" d="M183.24,-365.429C182.059,-318.739 178.801,-189.939 177.369,-133.313"/>
<polygon fill="black" stroke="black" points="180.867,-133.213 177.116,-123.305 173.87,-133.39 180.867,-133.213"/>
<text text-anchor="middle" x="241.178" y="-249.54" font-family="Times,serif" font-size="14.00">No hash in chain</text>
</g>
<!-- warn&#45;&gt;fail -->
<g id="edge9" class="edge"><title>warn&#45;&gt;fail</title>
<path fill="none" stroke="black" d="M173.818,-86.9569C172.977,-81.2635 172.154,-74.8733 171.678,-69 171.084,-61.674 170.773,-53.7255 170.623,-46.3673"/>
<polygon fill="black" stroke="black" points="174.121,-46.1093 170.505,-36.1504 167.121,-46.1903 174.121,-46.1093"/>
<text text-anchor="middle" x="221.678" y="-57.8" font-family="Times,serif" font-size="14.00">Manual reject</text>
</g>
<!-- warn&#45;&gt;success -->
<g id="edge8" class="edge"><title>warn&#45;&gt;success</title>
<path fill="none" stroke="black" d="M205.65,-95.2107C224.84,-88.9362 250.316,-79.7288 271.678,-69 282.584,-63.5226 284.316,-60.448 294.678,-54 301.574,-49.7083 308.984,-45.2191 316.144,-40.9422"/>
<polygon fill="black" stroke="black" points="318.211,-43.7852 325.022,-35.6694 314.636,-37.7667 318.211,-43.7852"/>
<text text-anchor="middle" x="347.678" y="-57.8" font-family="Times,serif" font-size="14.00">Manual accept</text>
</g>
</g>
</svg>
